<svg xmlns="http://www.w3.org/2000/svg" width="16.176" height="17.193" viewBox="0 0 16.176 17.193">
  <g id="Group_4674" data-name="Group 4674" transform="translate(294.921 41.631)">
    <g id="Group_4672" data-name="Group 4672">
      <path id="Path_8604" data-name="Path 8604" d="M-279.245-37.77H-284.3l-.53-3.36h4Z" fill="none" stroke="#a8a7ac" stroke-linecap="round" stroke-linejoin="round" stroke-width="1"/>
      <path id="Path_8605" data-name="Path 8605" d="M-284.3-37.77h-5.059l.53-3.36h4Z" fill="none" stroke="#a8a7ac" stroke-linecap="round" stroke-linejoin="round" stroke-width="1"/>
      <path id="Path_8606" data-name="Path 8606" d="M-289.363-37.77h-5.059l1.591-3.36h4Z" fill="none" stroke="#a8a7ac" stroke-linecap="round" stroke-linejoin="round" stroke-width="1"/>
    </g>
    <g id="Group_4673" data-name="Group 4673">
      <path id="Rectangle_2681" data-name="Rectangle 2681" d="M0,0H5.059a0,0,0,0,1,0,0V.831A2.529,2.529,0,0,1,2.529,3.36h0A2.529,2.529,0,0,1,0,.831V0A0,0,0,0,1,0,0Z" transform="translate(-284.304 -37.77)" fill="none" stroke="#a8a7ac" stroke-linecap="round" stroke-linejoin="round" stroke-width="1"/>
      <path id="Rectangle_2682" data-name="Rectangle 2682" d="M0,0H5.059a0,0,0,0,1,0,0V.831A2.529,2.529,0,0,1,2.529,3.36h0A2.529,2.529,0,0,1,0,.831V0A0,0,0,0,1,0,0Z" transform="translate(-289.363 -37.77)" fill="none" stroke="#a8a7ac" stroke-linecap="round" stroke-linejoin="round" stroke-width="1"/>
      <path id="Rectangle_2683" data-name="Rectangle 2683" d="M0,0H5.059a0,0,0,0,1,0,0V.831A2.529,2.529,0,0,1,2.529,3.36h0A2.529,2.529,0,0,1,0,.831V0A0,0,0,0,1,0,0Z" transform="translate(-294.421 -37.77)" fill="none" stroke="#a8a7ac" stroke-linecap="round" stroke-linejoin="round" stroke-width="1"/>
    </g>
    <path id="Path_8607" data-name="Path 8607" d="M-280.836-34.61v9.673H-292.83V-34.61" fill="none" stroke="#a8a7ac" stroke-linecap="round" stroke-linejoin="round" stroke-width="1"/>
    <rect id="Rectangle_2684" data-name="Rectangle 2684" width="6.325" height="4.249" transform="translate(-289.996 -32.02)" fill="none" stroke="#a8a7ac" stroke-linecap="round" stroke-linejoin="round" stroke-width="1"/>
  </g>
</svg>
