<svg xmlns="http://www.w3.org/2000/svg" width="23.579" height="16.138" viewBox="0 0 23.579 16.138">
  <g id="Group_4681" data-name="Group 4681" transform="translate(570.591 -264.969)">
    <path id="Path_8613" data-name="Path 8613" d="M-389.709,326.326a3.773,3.773,0,0,0,.315-1.513,3.785,3.785,0,0,0-3.785-3.785,3.784,3.784,0,0,0-3.313,1.954" transform="translate(-161.774 -51.775)" fill="none" stroke="#a8a7ac" stroke-linecap="round" stroke-miterlimit="10" stroke-width="1"/>
    <path id="Path_8614" data-name="Path 8614" d="M-514,355.224a3.771,3.771,0,0,0-.29,1.455,3.785,3.785,0,0,0,3.785,3.785,3.784,3.784,0,0,0,3.316-1.959" transform="translate(-52.003 -83.641)" fill="none" stroke="#a8a7ac" stroke-linecap="round" stroke-miterlimit="10" stroke-width="1"/>
    <path id="Path_8615" data-name="Path 8615" d="M-444.07,271.152a7.572,7.572,0,0,0-7.332-5.683,7.569,7.569,0,0,0-7.569,7.569" transform="translate(-103.551)" fill="none" stroke="#a8a7ac" stroke-linecap="round" stroke-miterlimit="10" stroke-width="1"/>
    <path id="Path_8616" data-name="Path 8616" d="M-331.858,409.967a7.577,7.577,0,0,0,6.241-5.6" transform="translate(-222.005 -129.438)" fill="none" stroke="#a8a7ac" stroke-linecap="round" stroke-miterlimit="10" stroke-width="1"/>
    <path id="Path_8617" data-name="Path 8617" d="M-541.052,381.69a7.549,7.549,0,0,0,5.591,2.467,7.569,7.569,0,0,0,7.569-7.569" transform="translate(-27.061 -103.55)" fill="none" stroke="#a8a7ac" stroke-linecap="round" stroke-miterlimit="10" stroke-width="1"/>
    <path id="Path_8618" data-name="Path 8618" d="M-563.932,267.394a7.571,7.571,0,0,0-6.159,7.438,7.585,7.585,0,0,0,.208,1.768" transform="translate(0 -1.794)" fill="none" stroke="#a8a7ac" stroke-linecap="round" stroke-miterlimit="10" stroke-width="1"/>
  </g>
</svg>
