<svg xmlns="http://www.w3.org/2000/svg" width="19.47" height="19.527" viewBox="0 0 19.47 19.527">
  <g id="Group_5146" data-name="Group 5146" transform="translate(-585.141 -1888.443)">
    <g id="Live_chat" data-name="Live chat" transform="translate(585.641 1896.205)">
      <g id="Group_5144" data-name="Group 5144" transform="translate(0)">
        <path id="Path_9073" data-name="Path 9073" d="M588.591,1905.712h-1.022a1.925,1.925,0,0,0-1.928,1.928v2.571a1.925,1.925,0,0,0,1.928,1.928h.907" transform="translate(-585.641 -1905.712)" fill="none" stroke="#a8a7ac" stroke-linecap="round" stroke-linejoin="round" stroke-width="1"/>
      </g>
    </g>
    <g id="Group_5145" data-name="Group 5145" transform="translate(601.174 1896.205)">
      <path id="Path_9074" data-name="Path 9074" d="M621.509,1912.138h1.009a1.925,1.925,0,0,0,1.928-1.928v-2.571a1.925,1.925,0,0,0-1.928-1.928h-1.009" transform="translate(-621.509 -1905.712)" fill="none" stroke="#a8a7ac" stroke-linecap="round" stroke-linejoin="round" stroke-width="1"/>
    </g>
    <rect id="Rectangle_2746" data-name="Rectangle 2746" width="4.211" height="2.292" rx="1.146" transform="translate(592.79 1905.178)" fill="none" stroke="#a8a7ac" stroke-linecap="round" stroke-linejoin="round" stroke-width="1"/>
    <path id="Path_9075" data-name="Path 9075" d="M600.864,1906.324h1.38a2.8,2.8,0,0,0,2.8-2.806l-.01-8.284a6.291,6.291,0,0,0-6.292-6.291h0a6.291,6.291,0,0,0-6.291,6.291v7.4" transform="translate(-3.863 0)" fill="none" stroke="#a8a7ac" stroke-linecap="round" stroke-linejoin="round" stroke-width="1"/>
  </g>
</svg>
