<svg width="48" height="48" viewBox="0 0 48 48" fill="none" xmlns="http://www.w3.org/2000/svg">
<path opacity="0.4" d="M38.2607 14.2222C38.8 15.0293 38.8 16.1529 38.8 18.4V38.8H39.6C40.2628 38.8 40.8 39.3373 40.8 40C40.8 40.6628 40.2628 41.2 39.6 41.2H7.60002C6.93728 41.2 6.40002 40.6628 6.40002 40C6.40002 39.3373 6.93728 38.8 7.60002 38.8H8.40002V18.4C8.40002 16.1529 8.40002 15.0293 8.93932 14.2222C9.17279 13.8728 9.47279 13.5728 9.8222 13.3393C10.5282 12.8676 13.881 12.8085 15.6113 12.8011C15.6047 13.2673 15.6047 13.7545 15.6048 14.2568L15.6048 14.4V16.4H11.6C10.9373 16.4 10.4 16.9373 10.4 17.6C10.4 18.2628 10.9373 18.8 11.6 18.8H15.6048V21.2H11.6C10.9373 21.2 10.4 21.7373 10.4 22.4C10.4 23.0628 10.9373 23.6 11.6 23.6H15.6048V26H11.6C10.9373 26 10.4 26.5373 10.4 27.2C10.4 27.8628 10.9373 28.4 11.6 28.4H15.6048V38.8H31.6047V28.4H35.6C36.2628 28.4 36.8 27.8628 36.8 27.2C36.8 26.5373 36.2628 26 35.6 26H31.6047V23.6H35.6C36.2628 23.6 36.8 23.0628 36.8 22.4C36.8 21.7373 36.2628 21.2 35.6 21.2H31.6047V18.8H35.6C36.2628 18.8 36.8 18.2628 36.8 17.6C36.8 16.9373 36.2628 16.4 35.6 16.4H31.6047V14.4L31.6047 14.2568C31.6048 13.7545 31.6048 13.2673 31.5983 12.8011C33.3285 12.8085 36.6719 12.8676 37.3779 13.3393C37.7273 13.5728 38.0273 13.8728 38.2607 14.2222Z" fill="black"/>
<path fill-rule="evenodd" clip-rule="evenodd" d="M22 8H25.2C28.217 8 29.7255 8 30.6628 8.93726C31.6 9.87452 31.6 11.383 31.6 14.4V38.8H34H38.8H39.6C40.2628 38.8 40.8 39.3373 40.8 40C40.8 40.6627 40.2628 41.2 39.6 41.2H7.60002C6.93728 41.2 6.40002 40.6627 6.40002 40C6.40002 39.3373 6.93728 38.8 7.60002 38.8H8.40002H13.2H15.6V14.4C15.6 11.383 15.6 9.87452 16.5373 8.93726C17.4745 8 18.983 8 22 8ZM23.6 34C24.2628 34 24.8 34.5373 24.8 35.2V38.8H22.4V35.2C22.4 34.5373 22.9373 34 23.6 34ZM20.4 27.2C19.7373 27.2 19.2 27.7373 19.2 28.4C19.2 29.0627 19.7373 29.6 20.4 29.6H26.8C27.4628 29.6 28 29.0627 28 28.4C28 27.7373 27.4628 27.2 26.8 27.2H20.4ZM19.2 23.6C19.2 22.9373 19.7373 22.4 20.4 22.4H26.8C27.4628 22.4 28 22.9373 28 23.6C28 24.2627 27.4628 24.8 26.8 24.8H20.4C19.7373 24.8 19.2 24.2627 19.2 23.6ZM20.4 18.4C19.7373 18.4 19.2 18.9373 19.2 19.6C19.2 20.2627 19.7373 20.8 20.4 20.8H26.8C27.4628 20.8 28 20.2627 28 19.6C28 18.9373 27.4628 18.4 26.8 18.4H20.4ZM19.2 14.8C19.2 14.1373 19.7373 13.6 20.4 13.6H26.8C27.4628 13.6 28 14.1373 28 14.8C28 15.4627 27.4628 16 26.8 16H20.4C19.7373 16 19.2 15.4627 19.2 14.8Z" fill="white"/>
</svg>
