<svg width="16" height="21" viewBox="0 0 16 21" fill="none" xmlns="http://www.w3.org/2000/svg">
<path fill-rule="evenodd" clip-rule="evenodd" d="M15.0279 11.3246H1.47192C1.05792 11.3246 0.721924 11.6606 0.721924 12.0746C0.721924 12.4886 1.05792 12.8246 1.47192 12.8246H2.41692C2.75592 15.4696 4.85392 17.5686 7.49992 17.9066V19.5056C7.49992 19.9196 7.83592 20.2556 8.24992 20.2556C8.66392 20.2556 8.99992 19.9196 8.99992 19.5056V17.9076C11.6459 17.5686 13.7439 15.4696 14.0829 12.8246H15.0279C15.4419 12.8246 15.7779 12.4886 15.7779 12.0746C15.7779 11.6606 15.4419 11.3246 15.0279 11.3246Z" fill="white"/>
<path opacity="0.4" fill-rule="evenodd" clip-rule="evenodd" d="M8.25353 0.952576C5.00353 0.952576 2.36353 3.59258 2.36353 6.84258V8.98258C2.36353 9.26258 2.58353 9.48258 2.86353 9.48258H13.6335C13.9135 9.48258 14.1335 9.26258 14.1335 8.98258V6.84258C14.1335 3.59258 11.4935 0.952576 8.25353 0.952576Z" fill="black"/>
<path d="M6.75317 7.6425H9.74317C10.1532 7.6425 10.4932 7.3025 10.4932 6.8925C10.4932 6.4825 10.1532 6.1425 9.74317 6.1425H6.75317C6.34317 6.1425 6.00317 6.4825 6.00317 6.8925C6.00317 7.3025 6.34317 7.6425 6.75317 7.6425Z" fill="white"/>
<path d="M8.75317 3.3725H7.74317C7.33317 3.3725 6.99317 3.7125 6.99317 4.1225C6.99317 4.5325 7.33317 4.8725 7.74317 4.8725H8.75317C9.16317 4.8725 9.50317 4.5325 9.50317 4.1225C9.50317 3.7125 9.16317 3.3725 8.75317 3.3725Z" fill="white"/>
</svg>
