<svg width="36" height="37" viewBox="0 0 36 37" fill="none" xmlns="http://www.w3.org/2000/svg">
<path d="M6.1875 12.5875V21.375C6.1875 23.6152 6.1875 24.7353 6.62347 25.591C7.00697 26.3436 7.61889 26.9556 8.37154 27.3391C9.22718 27.775 10.3473 27.775 12.5875 27.775H23.975C26.2152 27.775 27.3353 27.775 28.191 27.3391C28.9436 26.9556 29.5555 26.3436 29.939 25.591C30.375 24.7353 30.375 23.6152 30.375 21.375V12.5875" stroke="#202020" stroke-width="2" stroke-linecap="round" stroke-linejoin="round"/>
<path d="M6.1875 12.5875H30.375" stroke="#202020" stroke-width="2" stroke-linecap="round" stroke-linejoin="round"/>
<path d="M6.1875 18.2125L12.4825 19.6765C14.6455 20.1795 15.727 20.431 16.8209 20.5313C17.7924 20.6203 18.7701 20.6203 19.7416 20.5313C20.8355 20.431 21.917 20.1795 24.08 19.6765L30.375 18.2125" stroke="#202020" stroke-width="2" stroke-linecap="round" stroke-linejoin="round"/>
<path d="M12.375 12.5875V12.5875C12.5909 11.9865 12.6988 11.686 12.8283 11.4254C13.5805 9.91131 15.0469 8.87987 16.7262 8.68377C17.0152 8.65002 17.3345 8.65002 17.9731 8.65002H19.1519C19.7905 8.65002 20.1098 8.65002 20.3988 8.68377C22.0781 8.87987 23.5445 9.91131 24.2967 11.4254C24.4262 11.686 24.5341 11.9865 24.75 12.5875V12.5875" stroke="#202020" stroke-width="2" stroke-linecap="round" stroke-linejoin="round"/>
</svg>
