<svg width="36" height="37" viewBox="0 0 36 37" fill="none" xmlns="http://www.w3.org/2000/svg">
<path d="M11.5556 20.0104H25.4444C28.5125 20.0104 31 22.6442 31 25.8927C31 29.1413 28.5125 31.7751 25.4444 31.7751H11.5556C8.4875 31.7751 6 29.1413 6 25.8927C6 22.6442 8.4875 20.0104 11.5556 20.0104Z" stroke="#202020" stroke-width="2" stroke-linecap="round" stroke-linejoin="round"/>
<path d="M20.7063 25.8926H11.1475" stroke="#202020" stroke-width="2" stroke-linecap="round" stroke-linejoin="round"/>
<path d="M25.1182 20.0103V15.5985" stroke="#202020" stroke-width="2" stroke-linecap="round" stroke-linejoin="round"/>
<path d="M25.1175 6.77502C24.0013 6.78826 22.9557 6.97649 21.9984 7.31473C19.5498 8.17944 17.6984 10.0309 16.8322 12.4809C16.4954 13.4368 16.3072 14.4824 16.2939 15.5986" stroke="#202020" stroke-width="2" stroke-linecap="round" stroke-linejoin="round"/>
<path d="M20.7061 15.5986C20.7634 12.5859 22.5355 10.5184 25.1178 10.4515" stroke="#202020" stroke-width="2" stroke-linecap="round" stroke-linejoin="round"/>
</svg>
