<svg width="36" height="36" viewBox="0 0 36 36" fill="none" xmlns="http://www.w3.org/2000/svg">
<path d="M26.5438 11.7626C27.4676 11.7626 28.2164 11.0131 28.2164 10.0885C28.2164 9.16394 27.4676 8.41443 26.5438 8.41443C25.62 8.41443 24.8711 9.16394 24.8711 10.0885C24.8711 11.0131 25.62 11.7626 26.5438 11.7626Z" stroke="#202020" stroke-width="1.5" stroke-miterlimit="10"/>
<path d="M17.6389 9.34534C18.5635 9.34534 19.313 8.59646 19.313 7.67267C19.313 6.74888 18.5635 6 17.6389 6C16.7144 6 15.9648 6.74888 15.9648 7.67267C15.9648 8.59646 16.7144 9.34534 17.6389 9.34534Z" stroke="#202020" stroke-width="1.5" stroke-miterlimit="10"/>
<path d="M8.67267 11.7626C9.59646 11.7626 10.3453 11.0131 10.3453 10.0885C10.3453 9.16394 9.59646 8.41443 8.67267 8.41443C7.74888 8.41443 7 9.16394 7 10.0885C7 11.0131 7.74888 11.7626 8.67267 11.7626Z" stroke="#202020" stroke-width="1.5" stroke-miterlimit="10"/>
<path d="M8.67267 20.9427C9.59646 20.9427 10.3453 20.1932 10.3453 19.2687C10.3453 18.3441 9.59646 17.5946 8.67267 17.5946C7.74888 17.5946 7 18.3441 7 19.2687C7 20.1932 7.74888 20.9427 8.67267 20.9427Z" stroke="#202020" stroke-width="1.5" stroke-miterlimit="10"/>
<path d="M25.3566 11.2614L20.584 16.034V29.9998" stroke="#202020" stroke-width="1.5" stroke-miterlimit="10"/>
<path d="M9.84766 11.2614L14.6203 16.034V29.9998" stroke="#202020" stroke-width="1.5" stroke-miterlimit="10"/>
<path d="M9.84766 20.4617L11.6774 22.2914V29.9999" stroke="#202020" stroke-width="1.5" stroke-miterlimit="10"/>
<path d="M26.4901 20.9427C27.4138 20.9427 28.1627 20.1932 28.1627 19.2687C28.1627 18.3441 27.4138 17.5946 26.4901 17.5946C25.5663 17.5946 24.8174 18.3441 24.8174 19.2687C24.8174 20.1932 25.5663 20.9427 26.4901 20.9427Z" stroke="#202020" stroke-width="1.5" stroke-miterlimit="10"/>
<path d="M25.3181 20.4617L23.4883 22.2914V29.9999" stroke="#202020" stroke-width="1.5" stroke-miterlimit="10"/>
<path d="M17.6348 9.33606V29.9997" stroke="#202020" stroke-width="1.5" stroke-miterlimit="10"/>
</svg>
