<svg width="36" height="37" viewBox="0 0 36 37" fill="none" xmlns="http://www.w3.org/2000/svg">
<path d="M7.77774 23.9407L9.33725 22.3813C10.117 21.6016 11.3791 21.6016 12.1572 22.3813L13.3823 23.6063C13.6556 23.8796 14.0704 23.9713 14.4241 23.8169C16.2007 23.0388 17.9547 21.8604 19.519 20.2962C21.0769 18.7384 22.2522 16.9925 23.0303 15.2224C23.1927 14.8575 23.0978 14.4283 22.8149 14.1437L21.7168 13.0457C20.8245 12.1535 20.8245 10.8931 21.6043 10.1133L23.1654 8.55393C24.204 7.51539 25.8857 7.51539 26.9243 8.55393L27.7908 9.42045C28.7764 10.4059 29.1863 11.8271 28.9211 13.2354C28.2651 16.7079 26.2458 20.5116 22.9917 23.7671C19.7377 27.0226 15.9338 29.0402 12.4595 29.6961C11.0511 29.9614 9.62985 29.5514 8.64431 28.5659L7.77774 27.701C6.74075 26.6625 6.74075 24.9793 7.77774 23.9407V23.9407Z" stroke="#202020" stroke-width="2" stroke-linecap="round" stroke-linejoin="round"/>
</svg>
