<svg width="20" height="20" viewBox="0 0 20 20" fill="none" xmlns="http://www.w3.org/2000/svg">
<path d="M10 19C11.6569 19 13 14.9706 13 10C13 5.02944 11.6569 1 10 1C8.34315 1 7 5.02944 7 10C7 14.9706 8.34315 19 10 19Z" stroke="#999999" stroke-linecap="round" stroke-linejoin="round"/>
<path d="M10 19C14.9706 19 19 14.9706 19 10C19 5.02944 14.9706 1 10 1C5.02944 1 1 5.02944 1 10C1 14.9706 5.02944 19 10 19Z" stroke="#999999" stroke-linecap="round" stroke-linejoin="round"/>
<path d="M2 13L18 13" stroke="#999999" stroke-linecap="round" stroke-linejoin="round"/>
<path d="M2 7L18 7" stroke="#999999" stroke-linecap="round" stroke-linejoin="round"/>
</svg>
