<svg width="48" height="48" viewBox="0 0 48 48" fill="none" xmlns="http://www.w3.org/2000/svg">
<path d="M30.2061 14.7422V13.1827L29.0891 14.7422H30.2061Z" fill="white"/>
<path d="M46.615 6.18475H19.952C19.3624 6.18475 18.8845 6.66263 18.8845 7.2522V20.0021C18.8845 20.5916 19.3624 21.0695 19.952 21.0695H26.2186V25.2439C26.2186 25.7002 26.7392 25.961 27.1048 25.6881L33.2835 21.0695H46.615C47.2046 21.0695 47.6825 20.5916 47.6825 20.0021V7.2522C47.6825 6.66263 47.2046 6.18475 46.615 6.18475ZM25.883 17.4193H22.9773C22.6812 17.4193 22.4104 17.2544 22.275 16.991C22.1396 16.728 22.1617 16.4114 22.3334 16.1706L24.9836 12.4446C25.1744 12.1764 25.0685 11.9077 25.0316 11.8318C24.9878 11.7417 24.8535 11.5299 24.5611 11.5167H24.5595C24.1069 11.5167 23.7676 11.8566 23.7676 12.2744C23.7676 12.7112 23.4141 13.0647 22.9773 13.0647C22.5405 13.0647 22.187 12.7112 22.187 12.2744C22.187 10.9846 23.236 9.93558 24.5258 9.93558L24.6317 9.93768C25.4225 9.97351 26.1032 10.4224 26.4526 11.139C26.8035 11.8592 26.7344 12.7101 26.2718 13.3608L24.5089 15.8382H25.8825C26.3187 15.8382 26.6728 16.1917 26.6728 16.6285C26.6728 17.0652 26.3193 17.4193 25.883 17.4193ZM32.1012 16.3224H31.7877V16.629C31.7877 17.0658 31.4336 17.4193 30.9974 17.4193C30.5611 17.4193 30.2071 17.0658 30.2071 16.629V16.3224H27.55C27.2534 16.3224 26.9826 16.1569 26.8472 15.893C26.7118 15.629 26.735 15.3118 26.9078 15.071L30.3551 10.2649C30.5553 9.98563 30.9131 9.86919 31.2392 9.97298C31.5659 10.0784 31.7877 10.3824 31.7877 10.7254V14.7412H32.1012C32.5374 14.7412 32.8915 15.0947 32.8915 15.5315C32.8915 15.9683 32.5374 16.3224 32.1012 16.3224ZM39.3141 9.86339L34.3704 18.2908C34.2234 18.5416 33.9595 18.6812 33.6881 18.6812C33.5522 18.6812 33.4142 18.6464 33.2888 18.5726C32.912 18.3519 32.7861 17.8677 33.0069 17.491L37.9505 9.0636C38.1713 8.68741 38.656 8.56201 39.0322 8.78172C39.4089 9.00301 39.5349 9.48721 39.3141 9.86339ZM44.8637 11.1258L41.4011 17.0289C41.2541 17.2797 40.9901 17.4193 40.7187 17.4193C40.5828 17.4193 40.4448 17.3845 40.3194 17.3108C39.9427 17.09 39.8167 16.6058 40.0375 16.2291L42.802 11.5162H40.7193C40.283 11.5162 39.929 11.1627 39.929 10.7259C39.929 10.2891 40.283 9.93558 40.7193 9.93558H44.1819C44.4654 9.93558 44.7267 10.0873 44.8679 10.3328C45.0091 10.5789 45.007 10.8813 44.8637 11.1258Z" fill="white"/>
<path opacity="0.4" d="M13.5776 27.9275L17.3848 31.7347C17.7257 32.0756 18.2496 32.1523 18.6746 31.9251L23.2374 29.4755C23.5753 29.294 23.9826 29.3028 24.3116 29.4991L30.9684 33.4495C31.4436 33.7313 31.6339 34.3201 31.4126 34.8263C30.8444 36.1204 29.8085 38.4933 29.3968 39.5425C29.3097 39.7639 29.1814 39.966 29.0028 40.121C24.5655 43.9666 15.7395 39.2813 8.98237 32.5242C2.22527 25.7671 -2.45999 16.9396 1.38561 12.5038C1.54056 12.3237 1.74273 12.1954 1.96408 12.1083C3.0118 11.6981 5.38616 10.6621 6.68032 10.0925C7.18648 9.8697 7.77527 10.0615 8.05713 10.5367L12.0075 17.1935C12.2023 17.5225 12.2111 17.9313 12.0311 18.2677L9.58149 22.8305C9.35424 23.2555 9.43098 23.7794 9.77186 24.1203L13.5776 27.9275Z" fill="black"/>
</svg>
